<?xml version="1.0" encoding="UTF-8"?>
<!DOCTYPE svg PUBLIC "-//W3C//DTD SVG 1.1//EN" "http://www.w3.org/Graphics/SVG/1.1/DTD/svg11.dtd">
<svg xmlns="http://www.w3.org/2000/svg" version="1.1" width="130px" height="130px" style="shape-rendering:geometricPrecision; text-rendering:geometricPrecision; image-rendering:optimizeQuality; fill-rule:evenodd; clip-rule:evenodd" xmlns:xlink="http://www.w3.org/1999/xlink">
<g><path style="opacity:1" fill="#151518" d="M 78.5,-0.5 C 95.5,-0.5 112.5,-0.5 129.5,-0.5C 129.5,42.8333 129.5,86.1667 129.5,129.5C 97.5,129.5 65.5,129.5 33.5,129.5C 40.4801,126.138 40.1467,124.138 32.5,123.5C 32.5,121.5 32.5,119.5 32.5,117.5C 30.8333,117.5 29.1667,117.5 27.5,117.5C 27.8003,114.731 28.8003,112.231 30.5,110C 30.1364,105.296 29.6364,100.462 29,95.5C 35.0401,99.6793 36.5401,105.179 33.5,112C 36.4364,116.216 40.4364,117.549 45.5,116C 46.0465,115.075 46.7132,114.242 47.5,113.5C 49.5644,116.29 52.0644,118.624 55,120.5C 57.1566,119.615 57.9899,117.948 57.5,115.5C 59.2624,115.357 60.9291,115.691 62.5,116.5C 65.1028,114.951 67.6028,113.285 70,111.5C 72.8653,114.744 76.3653,117.077 80.5,118.5C 83.3609,116.02 86.6942,115.02 90.5,115.5C 90.822,113.278 90.1554,111.444 88.5,110C 90.229,108.211 90.8957,106.044 90.5,103.5C 93.0531,101.038 93.0531,98.7045 90.5,96.5C 90.6882,94.8967 90.1882,93.5634 89,92.5C 87.8173,93.731 86.6507,93.731 85.5,92.5C 86.6405,91.5745 86.6405,90.7412 85.5,90C 89.5543,88.664 92.5543,89.8306 94.5,93.5C 96.3334,92.9479 98.0001,92.1145 99.5,91C 98.4366,89.8118 97.1033,89.3118 95.5,89.5C 95.5,88.5 95.5,87.5 95.5,86.5C 100.091,82.9994 102.924,78.3328 104,72.5C 107.957,53.4236 101.457,39.4236 84.5,30.5C 87.5136,26.2122 86.8469,22.5456 82.5,19.5C 83.3829,18.452 84.0496,17.2853 84.5,16C 83.6777,13.5661 83.3444,11.0661 83.5,8.5C 81.1579,8.50414 79.1579,9.33747 77.5,11C 74.1994,11.9967 70.866,12.3301 67.5,12C 67.1084,9.64574 67.1084,7.14574 67.5,4.5C 70.7209,3.49461 74.0543,2.66128 77.5,2C 78.2524,1.32924 78.5858,0.495904 78.5,-0.5 Z"/></g>
<g><path style="opacity:1" fill="#151618" d="M -0.5,-0.5 C 25.8333,-0.5 52.1667,-0.5 78.5,-0.5C 78.5858,0.495904 78.2524,1.32924 77.5,2C 74.0543,2.66128 70.7209,3.49461 67.5,4.5C 67.1084,7.14574 67.1084,9.64574 67.5,12C 70.866,12.3301 74.1994,11.9967 77.5,11C 79.1579,9.33747 81.1579,8.50414 83.5,8.5C 83.3444,11.0661 83.6777,13.5661 84.5,16C 84.0496,17.2853 83.3829,18.452 82.5,19.5C 86.8469,22.5456 87.5136,26.2122 84.5,30.5C 63.0746,23.2548 45.5746,28.5881 32,46.5C 28.4366,52.3543 26.6033,58.6876 26.5,65.5C 24.9769,67.5104 23.1436,67.8437 21,66.5C 20.6397,68.4211 19.8064,70.0878 18.5,71.5C 17.4763,70.1468 16.143,69.4802 14.5,69.5C 14.2865,67.8561 14.6198,66.3561 15.5,65C 14.2986,64.0975 13.4652,62.9308 13,61.5C 12.6667,58.8333 12.3333,56.1667 12,53.5C 8.61273,51.6823 6.61273,52.6823 6,56.5C 1.91871,57.232 0.252044,59.5653 1,63.5C 1.72472,64.0585 2.55805,64.3918 3.5,64.5C 5.15501,63.6123 6.82168,63.1123 8.5,63C 9.89111,67.655 8.22445,69.155 3.5,67.5C 2.14819,68.5244 0.814858,69.5244 -0.5,70.5C -0.5,46.8333 -0.5,23.1667 -0.5,-0.5 Z"/></g>
<g><path style="opacity:1" fill="#f6f6f6" d="M 84.5,30.5 C 101.457,39.4236 107.957,53.4236 104,72.5C 102.924,78.3328 100.091,82.9994 95.5,86.5C 90.7198,88.4829 85.7198,88.9829 80.5,88C 78.2911,86.1266 76.4578,83.96 75,81.5C 72.5361,84.481 69.7028,86.8144 66.5,88.5C 50.1555,89.6451 43.3222,81.9784 46,65.5C 49.4063,53.396 57.2396,47.5627 69.5,48C 72.5616,49.0608 75.0616,50.8941 77,53.5C 77.7479,49.086 80.2479,47.586 84.5,49C 85.8045,49.804 86.4712,50.9707 86.5,52.5C 84.0667,61.364 82.9,70.364 83,79.5C 88.5157,82.9084 92.5157,81.5751 95,75.5C 100.939,60.7658 97.7727,48.5992 85.5,39C 75.7503,35.1616 65.7503,34.495 55.5,37C 38.5025,45.1596 31.6692,58.6596 35,77.5C 37.6303,90.1306 45.1303,98.2972 57.5,102C 63.8617,102.653 70.195,102.487 76.5,101.5C 81.218,99.7997 85.8846,98.133 90.5,96.5C 93.0531,98.7045 93.0531,101.038 90.5,103.5C 79.5656,109.252 67.8989,111.085 55.5,109C 34.7543,102.035 25.0877,87.5355 26.5,65.5C 26.6033,58.6876 28.4366,52.3543 32,46.5C 45.5746,28.5881 63.0746,23.2548 84.5,30.5 Z"/></g>
<g><path style="opacity:1" fill="#18191b" d="M 66.5,88.5 C 69.1456,90.4789 71.4789,92.8122 73.5,95.5C 74.8139,94.6872 75.9805,93.6872 77,92.5C 77.7811,93.7287 78.2811,95.062 78.5,96.5C 77.4529,98.0564 76.7863,99.7231 76.5,101.5C 70.195,102.487 63.8617,102.653 57.5,102C 45.1303,98.2972 37.6303,90.1306 35,77.5C 31.6692,58.6596 38.5025,45.1596 55.5,37C 65.7503,34.495 75.7503,35.1616 85.5,39C 97.7727,48.5992 100.939,60.7658 95,75.5C 92.5157,81.5751 88.5157,82.9084 83,79.5C 82.9,70.364 84.0667,61.364 86.5,52.5C 86.4712,50.9707 85.8045,49.804 84.5,49C 80.2479,47.586 77.7479,49.086 77,53.5C 75.0616,50.8941 72.5616,49.0608 69.5,48C 57.2396,47.5627 49.4063,53.396 46,65.5C 43.3222,81.9784 50.1555,89.6451 66.5,88.5 Z"/></g>
<g><path style="opacity:1" fill="#18191c" d="M 63.5,55.5 C 71.2123,54.1724 75.2123,57.3391 75.5,65C 75.5075,73.8721 71.3408,79.3721 63,81.5C 57.0816,80.3657 54.5816,76.699 55.5,70.5C 55.3016,63.8931 57.9683,58.8931 63.5,55.5 Z"/></g>
<g><path style="opacity:1" fill="#202226" d="M 95.5,86.5 C 95.5,87.5 95.5,88.5 95.5,89.5C 97.1033,89.3118 98.4366,89.8118 99.5,91C 98.0001,92.1145 96.3334,92.9479 94.5,93.5C 92.5543,89.8306 89.5543,88.664 85.5,90C 86.6405,90.7412 86.6405,91.5745 85.5,92.5C 86.6507,93.731 87.8173,93.731 89,92.5C 90.1882,93.5634 90.6882,94.8967 90.5,96.5C 85.8846,98.133 81.218,99.7997 76.5,101.5C 76.7863,99.7231 77.4529,98.0564 78.5,96.5C 78.2811,95.062 77.7811,93.7287 77,92.5C 75.9805,93.6872 74.8139,94.6872 73.5,95.5C 71.4789,92.8122 69.1456,90.4789 66.5,88.5C 69.7028,86.8144 72.5361,84.481 75,81.5C 76.4578,83.96 78.2911,86.1266 80.5,88C 85.7198,88.9829 90.7198,88.4829 95.5,86.5 Z"/></g>
<g><path style="opacity:1" fill="#17181b" d="M 26.5,65.5 C 25.0877,87.5355 34.7543,102.035 55.5,109C 67.8989,111.085 79.5656,109.252 90.5,103.5C 90.8957,106.044 90.229,108.211 88.5,110C 90.1554,111.444 90.822,113.278 90.5,115.5C 86.6942,115.02 83.3609,116.02 80.5,118.5C 76.3653,117.077 72.8653,114.744 70,111.5C 67.6028,113.285 65.1028,114.951 62.5,116.5C 60.9291,115.691 59.2624,115.357 57.5,115.5C 57.9899,117.948 57.1566,119.615 55,120.5C 52.0644,118.624 49.5644,116.29 47.5,113.5C 46.7132,114.242 46.0465,115.075 45.5,116C 40.4364,117.549 36.4364,116.216 33.5,112C 36.5401,105.179 35.0401,99.6793 29,95.5C 29.6364,100.462 30.1364,105.296 30.5,110C 28.8003,112.231 27.8003,114.731 27.5,117.5C 29.1667,117.5 30.8333,117.5 32.5,117.5C 32.5,119.5 32.5,121.5 32.5,123.5C 40.1467,124.138 40.4801,126.138 33.5,129.5C 22.1667,129.5 10.8333,129.5 -0.5,129.5C -0.5,109.833 -0.5,90.1667 -0.5,70.5C 0.814858,69.5244 2.14819,68.5244 3.5,67.5C 8.22445,69.155 9.89111,67.655 8.5,63C 6.82168,63.1123 5.15501,63.6123 3.5,64.5C 2.55805,64.3918 1.72472,64.0585 1,63.5C 0.252044,59.5653 1.91871,57.232 6,56.5C 6.61273,52.6823 8.61273,51.6823 12,53.5C 12.3333,56.1667 12.6667,58.8333 13,61.5C 13.4652,62.9308 14.2986,64.0975 15.5,65C 14.6198,66.3561 14.2865,67.8561 14.5,69.5C 16.143,69.4802 17.4763,70.1468 18.5,71.5C 19.8064,70.0878 20.6397,68.4211 21,66.5C 23.1436,67.8437 24.9769,67.5104 26.5,65.5 Z"/></g>
</svg>
