<?xml version="1.0" encoding="UTF-8"?>
<!DOCTYPE svg PUBLIC "-//W3C//DTD SVG 1.1//EN" "http://www.w3.org/Graphics/SVG/1.1/DTD/svg11.dtd">
<svg xmlns="http://www.w3.org/2000/svg" version="1.1" width="200px" height="200px" style="shape-rendering:geometricPrecision; text-rendering:geometricPrecision; image-rendering:optimizeQuality; fill-rule:evenodd; clip-rule:evenodd" xmlns:xlink="http://www.w3.org/1999/xlink">
<g><path style="opacity:1" fill="#000000" d="M -0.5,-0.5 C 66.1667,-0.5 132.833,-0.5 199.5,-0.5C 199.5,66.1667 199.5,132.833 199.5,199.5C 132.833,199.5 66.1667,199.5 -0.5,199.5C -0.5,132.833 -0.5,66.1667 -0.5,-0.5 Z"/></g>
<g><path style="opacity:1" fill="#f9f9f9" d="M 75.5,52.5 C 91.1702,52.3334 106.837,52.5001 122.5,53C 124.667,53.8333 126.167,55.3333 127,57.5C 127.719,61.1454 128.219,64.8121 128.5,68.5C 137.839,68.3335 147.173,68.5002 156.5,69C 157.333,69.8333 158.167,70.6667 159,71.5C 159.667,95.5 159.667,119.5 159,143.5C 158.5,145.333 157.333,146.5 155.5,147C 118.167,147.667 80.8333,147.667 43.5,147C 41.6667,146.5 40.5,145.333 40,143.5C 39.3333,119.5 39.3333,95.5 40,71.5C 40.8333,70.6667 41.6667,69.8333 42.5,69C 51.8274,68.5002 61.1607,68.3335 70.5,68.5C 70.3428,62.4773 72.0095,57.144 75.5,52.5 Z"/></g>
<g><path style="opacity:1" fill="#020202" d="M 151.5,75.5 C 151.5,96.8333 151.5,118.167 151.5,139.5C 116.5,139.5 81.5,139.5 46.5,139.5C 46.5,118.167 46.5,96.8333 46.5,75.5C 55.5062,75.6664 64.5062,75.4998 73.5,75C 75,74.1667 76.1667,73 77,71.5C 78.0153,67.5598 78.5153,63.5598 78.5,59.5C 92.5,59.5 106.5,59.5 120.5,59.5C 120.08,64.6625 121.08,69.4959 123.5,74C 132.726,75.4455 142.06,75.9455 151.5,75.5 Z"/></g>
<g><path style="opacity:1" fill="#f5f5f5" d="M 92.5,77.5 C 109.162,75.7469 120.328,82.7469 126,98.5C 126.96,121.874 115.793,132.707 92.5,131C 74.7133,123.65 68.8799,110.817 75,92.5C 78.8885,85.103 84.7219,80.103 92.5,77.5 Z"/></g>
<g><path style="opacity:1" fill="#ececec" d="M 138.5,80.5 C 146.631,81.5912 148.297,85.4246 143.5,92C 137.212,93.378 134.379,90.878 135,84.5C 136.376,83.2949 137.542,81.9616 138.5,80.5 Z"/></g>
<g><path style="opacity:1" fill="#050505" d="M 94.5,84.5 C 108.556,83.727 116.889,90.227 119.5,104C 116.916,120.248 107.583,126.581 91.5,123C 79.8847,115.706 77.0514,105.873 83,93.5C 86.1607,89.4905 89.994,86.4905 94.5,84.5 Z"/></g>
<g><path style="opacity:1" fill="#6d6d6d" d="M 151.5,75.5 C 152.497,96.9936 152.831,118.66 152.5,140.5C 116.996,140.832 81.6627,140.498 46.5,139.5C 81.5,139.5 116.5,139.5 151.5,139.5C 151.5,118.167 151.5,96.8333 151.5,75.5 Z"/></g>
</svg>
